<svg xmlns="http://www.w3.org/2000/svg" viewBox="0 0 960 960">
  <defs>
    <linearGradient id="body" x1="220" y1="180" x2="740" y2="780" gradientUnits="userSpaceOnUse">
      <stop offset="0" stop-color="#f8f9f7"/>
      <stop offset=".55" stop-color="#e4e7e3"/>
      <stop offset="1" stop-color="#f5f6f4"/>
    </linearGradient>
    <linearGradient id="foot" x1="0" y1="0" x2="1" y2="1">
      <stop offset="0" stop-color="#2c2d2f"/>
      <stop offset=".5" stop-color="#090a0b"/>
      <stop offset="1" stop-color="#343638"/>
    </linearGradient>
  </defs>
  <g stroke-linecap="round" stroke-linejoin="round">
    <path fill="url(#body)" stroke="#d1d6d0" stroke-width="18" d="M480 156c57 0 100 36 111 91 35 174 121 282 266 330 55 18 83 76 62 130-34 88-116 146-209 146-56 0-102-28-132-75-47-73-101-106-98-106s-51 33-98 106c-30 47-76 75-132 75-93 0-175-58-209-146-21-54 7-112 62-130 145-48 231-156 266-330 11-55 54-91 111-91Z"/>
    <circle cx="480" cy="170" r="94" fill="url(#foot)" stroke="#111" stroke-width="12"/>
    <circle cx="190" cy="688" r="94" fill="url(#foot)" stroke="#111" stroke-width="12"/>
    <circle cx="770" cy="688" r="94" fill="url(#foot)" stroke="#111" stroke-width="12"/>
    <path fill="none" stroke="#5a5d5f" stroke-opacity=".55" stroke-width="18" d="M422 177c33 21 75 20 116-2"/>
    <path fill="none" stroke="#5a5d5f" stroke-opacity=".55" stroke-width="18" d="M129 679c35 18 76 13 112-13"/>
    <path fill="none" stroke="#5a5d5f" stroke-opacity=".55" stroke-width="18" d="M711 679c35 18 76 13 112-13"/>
    <g fill="none" stroke="#c6cbc5" stroke-width="14">
      <path d="M451 444c0-18 13-30 29-30s29 12 29 30c0 33-58 22-58 55 0 18 13 30 29 30s29-12 29-30"/>
      <path d="M480 392v30"/>
      <path d="M480 522v30"/>
      <path d="M390 584h180"/>
      <path d="M410 622h140"/>
    </g>
  </g>
</svg>
