<?xml version="1.0" encoding="UTF-8" standalone="no"?>
<svg
   viewBox="0 0 960 960"
   version="1.1"
   id="svg16"
   sodipodi:docname="icon.svg"
   inkscape:version="1.3.2 (091e20e, 2023-11-25, custom)"
   xmlns:inkscape="http://www.inkscape.org/namespaces/inkscape"
   xmlns:sodipodi="http://sodipodi.sourceforge.net/DTD/sodipodi-0.dtd"
   xmlns="http://www.w3.org/2000/svg"
   xmlns:svg="http://www.w3.org/2000/svg">
  <sodipodi:namedview
     id="namedview16"
     pagecolor="#ffffff"
     bordercolor="#000000"
     borderopacity="0.25"
     inkscape:showpageshadow="2"
     inkscape:pageopacity="0.0"
     inkscape:pagecheckerboard="0"
     inkscape:deskcolor="#d1d1d1"
     inkscape:zoom="1.221875"
     inkscape:cx="887.97954"
     inkscape:cy="486.54731"
     inkscape:window-width="3440"
     inkscape:window-height="1369"
     inkscape:window-x="-8"
     inkscape:window-y="-8"
     inkscape:window-maximized="1"
     inkscape:current-layer="svg16" />
  <defs
     id="defs6">
    <linearGradient
       id="body"
       x1="220"
       y1="180"
       x2="740"
       y2="780"
       gradientUnits="userSpaceOnUse">
      <stop
         offset="0"
         stop-color="#f8f9f7"
         id="stop1" />
      <stop
         offset=".55"
         stop-color="#e4e7e3"
         id="stop2" />
      <stop
         offset="1"
         stop-color="#f5f6f4"
         id="stop3" />
    </linearGradient>
    <linearGradient
       id="foot"
       x1="0"
       y1="0"
       x2="1"
       y2="1">
      <stop
         offset="0"
         stop-color="#2c2d2f"
         id="stop4" />
      <stop
         offset=".5"
         stop-color="#090a0b"
         id="stop5" />
      <stop
         offset="1"
         stop-color="#343638"
         id="stop6" />
    </linearGradient>
  </defs>
  <path
     style="fill:#000000;stroke:#000000;stroke-width:20;stroke-dasharray:none;stroke-opacity:1"
     d="m 839.98035,903.66056 c -24.48395,-6.02648 -45.93454,-27.26986 -52.38604,-51.8802 -4.75497,-18.13881 -52.83137,-69.16428 -92.33704,-98.00118 -4.19661,-3.0633 -14.4424,-9.76149 -22.76841,-14.8849 l -15.13816,-9.31525 -3.01963,6.19429 c -4.85344,9.95588 -7.66572,10.33644 -23.36826,3.16188 -28.16359,-12.86795 -66.51871,-22.87787 -102.64495,-26.78821 -20.89656,-2.26182 -56.21779,-1.17602 -81.04301,2.49146 -23.06619,3.40751 -59.99806,12.96834 -77.04771,19.94579 -11.66598,4.77425 -13.93213,5.26491 -15.75767,3.41214 -1.82561,-1.85276 -1.56139,-3.15257 1.83719,-9.0382 13.89701,-24.06705 13.6911,-54.51992 -0.52025,-76.97204 -6.74092,-10.64962 -24.57992,-26.47768 -29.80467,-26.44483 -0.85433,0.005 -8.26764,5.12248 -16.47397,11.37126 -23.27961,17.7266 -52.35095,34.57237 -81.22018,47.06397 -14.5972,6.31617 -47.11901,17.08743 -60.21747,19.94411 l -12.03135,2.62399 4.34327,7.89338 c 7.23712,13.15255 9.6412,24.29646 8.79283,40.75758 -0.65695,12.7466 -1.42005,15.84878 -6.42926,26.13547 -18.50468,37.99978 -63.633189,52.29883 -99.439005,31.50741 -9.667513,-5.61366 -23.390064,-20.30544 -28.007206,-29.98539 -14.097928,-29.55661 -8.018926,-63.23306 15.383773,-85.22285 15.550281,-14.61147 33.049657,-20.67272 53.826748,-18.64398 18.06182,1.76366 24.62341,1.52448 39.08214,-1.42451 41.75771,-8.51693 89.15635,-27.4189 125.89873,-50.20684 7.55388,-4.68497 13.98439,-8.71754 14.2899,-8.96117 0.30569,-0.24352 -0.89624,-2.31615 -2.67058,-4.60547 -3.97892,-5.13372 -4.13241,-10.62024 -0.39739,-14.19908 1.55578,-1.49072 7.5646,-6.18441 13.35288,-10.43051 13.60285,-9.97861 45.52399,-41.46407 58.12273,-57.32942 28.42805,-35.79895 51.01108,-80.60777 64.4097,-127.80047 4.66908,-16.44568 9.31234,-40.3196 9.31234,-47.88109 0,-4.37938 2.43883,-7.85085 5.51544,-7.85085 1.01916,0 3.90171,3.37921 6.40566,7.50936 14.55595,24.0092 35.8624,36.21651 62.98418,36.08616 10.07783,-0.0486 15.3958,-0.93979 23.04872,-3.86329 14.31101,-5.46696 16.56871,-7.16371 15.72588,-11.81834 -1.91575,-10.57923 -3.89905,-53.26708 -3.12075,-67.16992 2.24401,-40.08776 9.33421,-79.12104 19.8421,-109.23603 1.30062,-3.72741 2.3647,-7.29905 2.3647,-7.93697 0,-0.63791 -5.79484,-1.46853 -12.87743,-1.84581 -10.96797,-0.58426 -14.53192,-1.52113 -24.03523,-6.3183 -23.29702,-11.76011 -38.00225,-33.3158 -40.39153,-59.20806 -3.14198,-34.048824 20.17488,-66.976702 53.70385,-75.840079 31.80172,-8.40678 66.09364,8.108048 81.18479,39.09818 5.21743,10.714142 5.73388,12.970289 6.25061,27.308069 0.46834,12.98651 0.002,17.31703 -2.75796,25.61263 -3.52477,10.59512 -11.08811,23.31644 -17.49376,29.42397 -6.69194,6.38046 -21.4837,49.91623 -27.39302,80.6242 -5.77927,30.03217 -7.32024,45.30128 -7.6994,76.29133 l -0.26071,21.30903 4.99705,-0.95143 c 4.15305,-0.79072 5.73462,-0.20288 9.3639,3.48053 3.80816,3.86495 4.49659,5.98964 5.3809,16.6071 3.63344,43.62384 27.00255,108.46618 53.93612,149.65652 18.76099,28.69178 50.94071,64.25806 74.2048,82.01396 6.55214,5.00084 8.73102,7.59568 8.3932,9.99565 -0.40835,2.90315 -1.81015,3.34798 -13.42762,4.26187 -7.21162,0.56721 -16.88953,2.51626 -21.79544,4.38923 -9.3202,3.55819 -19.44619,8.67166 -19.44619,11.58341 0,0.95047 -5.74025,5.58261 -6.50431,6.29244 -0.80706,0.74991 1.73061,-1.15742 2.36859,-2.28215 0.60377,-1.0648 1.33,-1.5268 0.61366,-1.5268 -1.68886,0 -12.06766,14.58256 -15.56493,21.56662 -3.85141,7.69121 -6.77789,19.72477 -6.79905,27.95709 -0.0173,7.04828 -0.0173,7.04828 22.25097,18.31471 44.98704,22.75991 89.85952,58.1823 120.58192,95.18747 l 6.21697,7.48832 4.90448,-7.75694 c 12.87398,-20.36147 34.87619,-32.77973 58.40272,-32.96296 13.80892,-0.10764 20.34058,1.33957 32.60849,7.22455 27.24844,13.07137 44.15296,45.59516 39.13492,75.29443 -7.13306,42.21698 -46.70333,69.36015 -86.74696,59.50396 z m 27.72007,-0.87332 c 36.38388,-5.99978 62.41324,-41.81636 57.25769,-78.78706 -0.75504,-5.41452 -1.63721,-10.11299 -1.96045,-10.44098 -0.32298,-0.3278 -5.34334,3.45516 -11.15594,8.40712 -5.81254,4.95189 -17.16216,13.93582 -25.22136,19.96428 -8.05918,6.02846 -18.36001,15.31615 -22.89068,20.63929 -4.53072,5.32314 -13.59229,15.81224 -20.13687,23.30916 l -11.03124,12.69028 4.92701,2.46564 c 12.09502,6.05275 18.17106,3.73784 30.21184,1.75227 z M 840.43243,886.8911 c 5.7795,-6.17578 14.55176,-16.37291 19.49395,-22.66028 4.9422,-6.28736 13.44279,-14.65086 18.89018,-18.58557 5.4474,-3.93468 17.39455,-13.30275 26.54927,-20.81781 18.47577,-15.16664 18.13023,-14.28835 10.75128,-27.32804 -6.18145,-10.92364 -17.46555,-21.27505 -29.6545,-27.20354 -6.0752,-2.95489 -12.09533,-5.32512 -13.37795,-5.26718 -1.40809,0.0638 -5.476,6.6606 -10.26663,16.64957 -4.36392,9.09932 -11.42795,20.8927 -15.69786,26.20741 -6.44042,8.0165 -9.89927,10.70826 -20.29734,15.79609 -6.89371,3.37308 -18.37114,7.82952 -25.50542,9.90315 -15.25097,4.43278 -15.59496,5.1035 -10.81328,21.08094 4.90741,16.39739 18.1748,32.85021 32.94096,40.84984 2.518,1.36409 5.00587,2.50809 5.52864,2.54221 0.52257,0.0352 5.6792,-4.99093 11.4587,-11.16679 z m -54.75266,-56.23857 c 0.0836,-5.58902 1.31972,-13.93016 2.74705,-18.5358 2.59525,-8.37393 2.59525,-8.37393 -5.11845,-17.32925 -34.59895,-40.16829 -82.5063,-76.90742 -127.92528,-98.10315 -12.77437,-5.96143 -12.77437,-5.96143 -12.77437,-1.40149 0,4.17353 1.13152,5.14547 13.35288,11.46947 7.34411,3.80024 16.88531,9.00631 21.20276,11.56901 7.44723,4.4205 7.88996,4.50385 8.63192,1.62441 0.43028,-1.66931 1.51605,-3.03509 2.41317,-3.03509 1.09661,0 1.16928,1.23284 0.22205,3.762 -1.27934,3.41513 -0.67782,4.23353 6.52348,8.87676 27.74596,17.88963 81.39923,67.01474 80.18437,73.41702 -1.21543,6.40531 -5.81145,4.04158 -18.41337,-9.46992 -17.06451,-18.29626 -39.20256,-36.94446 -63.0606,-53.11982 -17.34052,-11.7565 -42.76578,-26.5636 -45.61237,-26.5636 -0.52659,0 0.52774,2.61356 2.34272,5.80794 2.49005,4.3828 7.27578,8.19024 19.50267,15.51594 39.91269,23.91355 82.51327,61.95023 108.38327,96.77189 3.63893,4.89806 6.758,8.90557 6.93137,8.90557 0.17304,0 0.38356,-4.57287 0.46718,-10.16189 z m -8.05723,-28.62569 c -0.49603,-0.8146 -0.47756,-2.1781 0.0404,-3.02994 1.41014,-2.31567 5.34114,-1.8677 5.34114,0.60866 0,2.62611 -4.12704,4.48267 -5.38233,2.42128 z m -14.45625,-20.84112 c 1.04489,-1.27774 2.58648,-2.32317 3.42581,-2.32317 0.85126,0 0.68602,1.02721 -0.37375,2.32317 -1.04488,1.27775 -2.58648,2.32322 -3.4258,2.32322 -0.85126,0 -0.68602,-1.02727 0.37374,-2.32322 z m -19.83857,-15.59859 c 0,-0.48703 0.98628,-1.886 2.19175,-3.10949 1.54921,-1.57226 2.50134,-1.71608 3.24762,-0.49055 0.58071,0.95363 0.10957,2.3422 -1.04723,3.0858 -2.42937,1.56165 -4.39214,1.79147 -4.39214,0.51454 z m -17.42726,-15.95098 c -0.46833,-0.76923 0.17074,-2.25982 1.4206,-3.31251 1.84752,-1.5562 2.27225,-1.46132 2.27225,0.50753 0,2.89145 -2.48894,4.78196 -3.69285,2.80498 z m -19.67471,-15.14017 c -1.99014,-2.01984 -1.04003,-3.64617 2.13009,-3.64617 1.77595,0 2.91264,0.81185 2.57517,1.83923 -0.74334,2.26329 -3.29147,3.24185 -4.70526,1.80694 z m -41.4266,-25.22627 c -1.13082,-1.85691 0.19783,-4.74941 2.18129,-4.74941 1.40819,0 1.21463,3.97556 -0.26646,5.47896 -0.50007,0.50752 -1.36135,0.17913 -1.91461,-0.72955 z m 139.49164,121.31843 c 26.22848,-8.10166 36.21437,-15.01005 48.31397,-33.4241 6.51754,-9.91884 15.85867,-28.88934 15.85867,-32.20665 0,-2.32392 -20.72669,-1.92464 -29.98649,0.57776 -26.49418,7.15952 -48.43734,32.74109 -50.50461,58.8789 -0.62389,7.88841 -0.34434,10.20532 1.2306,10.20532 1.12073,0 7.91027,-1.81401 15.08786,-4.03112 z m -688.6811,-12.07212 c 4.33392,-1.17116 11.1256,-3.77449 15.09265,-5.78524 7.53991,-3.82178 20.51974,-14.53572 20.51974,-16.93768 0,-0.76654 -3.78225,-6.36201 -8.40503,-12.4343 -4.62278,-6.07224 -11.24841,-16.86417 -14.72358,-23.98199 -7.88552,-16.15084 -9.07736,-28.11788 -5.00039,-50.20808 1.49355,-8.09246 2.76811,-16.97872 2.83241,-19.74718 0.0641,-2.76845 0.84083,-5.0336 1.72566,-5.0336 2.74833,0 15.20086,8.64512 21.15113,14.68411 6.60111,6.69959 6.42998,6.70474 33.70372,-1.01579 44.20578,-12.51355 90.87346,-35.75675 126.35935,-62.93411 12.02642,-9.21061 13.15366,-10.49363 10.77218,-12.26104 -3.68992,-2.7383 -6.68417,-2.46909 -10.37144,0.93256 -5.69839,5.25712 -30.48239,21.4739 -47.47815,31.06616 -19.70232,11.11985 -42.0708,20.91477 -67.19503,29.4238 -23.17705,7.8496 -29.84971,8.99657 -32.62116,5.60745 -3.18922,-3.90004 -0.57274,-5.4367 18.9622,-11.13559 22.24226,-6.48885 43.41797,-15.21956 68.71807,-28.33231 18.47297,-9.57434 51.12249,-30.09345 51.12249,-32.12879 0,-0.49464 -3.29344,-0.57776 -7.3188,-0.18497 -5.39899,0.52684 -10.5028,2.7526 -19.45709,8.48637 -37.31454,23.894 -84.12337,43.1534 -125.06558,51.458 -9.23259,1.87267 -18.93552,4.07871 -21.56209,4.90233 -3.30543,1.0364 -6.12417,0.93659 -9.15627,-0.3243 -7.0292,-2.92312 -32.089286,-2.46471 -41.005787,0.75004 -8.247176,2.97339 -19.886218,9.42004 -21.351404,11.8261 -1.134264,1.86264 6.197942,24.26005 14.247511,43.52124 3.828222,9.16019 6.73424,19.18645 7.817289,26.97078 1.960984,14.0943 9.170175,52.0661 10.218232,53.8207 1.150257,1.92576 19.047309,1.27125 27.469169,-1.0045 z m 45.6599,-119.63396 c -1.34534,-3.55807 1.22253,-5.89178 3.46519,-3.14925 1.37976,1.68727 1.30155,2.59092 -0.34434,3.97714 -1.66365,1.40132 -2.34654,1.22014 -3.12092,-0.82789 z m 24.60937,-6.75011 c -0.43892,-1.70366 -0.17591,-3.09761 0.58502,-3.09761 0.76077,0 1.38317,1.39395 1.38317,3.09761 0,1.70366 -0.26302,3.09761 -0.58503,3.09761 -0.32184,0 -0.94418,-1.39395 -1.38316,-3.09761 z m 23.33284,-7.744 c 0,-1.70368 0.54043,-3.09756 1.2013,-3.09756 0.6607,0 1.30478,1.39388 1.4312,3.09756 0.12636,1.70366 -0.41412,3.09761 -1.2013,3.09761 -0.78718,0 -1.4312,-1.39395 -1.4312,-3.09761 z m 22.96065,-9.16014 c -0.9375,-1.77771 -1.06646,-3.23021 -0.28665,-3.23021 1.5684,0 3.73366,4.69112 2.66554,5.77511 -0.37144,0.37698 -1.44181,-0.76823 -2.37866,-2.5449 z m 21.6021,-9.82079 c -1.42243,-1.74171 -1.50144,-2.72772 -0.27972,-3.49385 2.25915,-1.41713 3.41397,-0.0726 2.77803,3.23471 -0.46546,2.41964 -0.71273,2.44527 -2.49808,0.25931 z M 275.76146,652.52 c -1.26739,-3.35202 -0.67066,-3.95758 2.1538,-2.1859 1.63417,1.02498 1.77882,1.86014 0.53986,3.11745 -1.23886,1.25733 -1.96045,1.00779 -2.69376,-0.93155 z m 20.40347,-13.06691 c -1.7452,-1.09471 -1.82969,-1.80856 -0.3876,-3.27241 1.44234,-1.46384 2.06329,-1.29437 2.84638,0.77672 1.27507,3.3724 0.3824,4.27809 -2.45901,2.49569 z M 85.602143,818.13072 c 0,-0.55142 -1.675064,-9.43766 -3.722315,-19.74718 -2.047311,-10.30952 -4.700998,-25.03331 -5.897051,-32.71954 -1.250442,-8.03547 -4.233113,-18.73478 -7.017886,-25.17416 -2.663682,-6.15952 -7.164493,-17.87668 -10.001763,-26.03818 -2.837269,-8.16143 -5.622088,-15.3025 -6.18851,-15.86897 -1.646054,-1.64623 -11.078098,10.52827 -16.000785,20.65322 -12.066349,24.81796 -8.774944,53.66452 8.659255,75.89102 7.205193,9.1858 15.297796,15.14611 27.449421,20.21701 9.064908,3.7828 12.719634,4.58352 12.719634,2.78678 z M 773.49255,802.40628 c 0.32876,-1.00086 -6.83891,-9.35828 -15.92811,-18.57204 -28.42678,-28.81624 -60.92759,-53.13283 -96.01368,-71.83593 -16.2642,-8.66989 -17.66535,-9.15516 -16.63541,-5.76123 1.36997,4.51462 -0.21398,3.23681 11.23399,9.06173 5.34905,2.72164 16.92373,9.42122 25.72166,14.88795 8.79787,5.46673 16.71673,9.48748 17.59758,8.93499 0.88378,-0.55434 1.1536,-0.26925 0.60208,0.63661 -0.55774,0.91622 3.88757,5.29732 10.06505,9.91906 6.08535,4.55297 13.07464,10.02052 15.53163,12.15022 12.13484,10.51826 30.32361,27.97599 36.77603,35.29782 6.92595,7.85921 9.75778,9.21271 11.04918,5.28082 z M 163.55827,775.49626 c 4.11724,-10.52687 5.47171,-29.17595 2.91743,-40.16853 -2.49702,-10.74597 -8.94563,-23.67374 -15.86962,-31.81457 -4.95678,-5.82791 -18.19448,-16.0276 -20.80144,-16.0276 -1.47837,0 -5.84858,23.22985 -7.00697,37.24553 -1.54444,18.68707 4.58857,35.01672 21.95895,58.46749 l 4.17718,6.60161 7.7971,-0.67712 c 3.54709,-0.30804 5.05316,-9.09059 6.82737,-13.62681 z m 488.8834,-39.82849 c 2.11123,-4.14356 1.91235,-5.03542 -3.61032,-16.19257 -19.13502,-38.65732 -4.3003,-82.59471 34.14266,-101.12337 9.12952,-4.40024 13.87983,-5.65142 24.64489,-6.49132 7.52717,-0.5873 13.57915,-1.78807 13.89491,-2.75686 0.30743,-0.94404 -4.44415,-5.80724 -10.5595,-10.80715 -34.45174,-28.16769 -66.38634,-67.00514 -87.16252,-106.00321 -19.16835,-35.98018 -34.19543,-83.76989 -39.17246,-124.57772 -0.93125,-7.63534 -2.42643,-14.77916 -3.32267,-15.87517 -0.89625,-1.09599 -4.23957,-1.99271 -7.42965,-1.99271 -5.49145,0 -6.18088,0.58126 -12.95386,10.92114 -11.51839,17.5845 -29.06976,28.93644 -50.50762,32.6674 -27.33564,4.75744 -56.87916,-9.55669 -73.38426,-35.55544 -6.52798,-10.28281 -8.76603,-9.06014 -10.11211,5.52436 -3.26384,35.36238 -25.29779,96.13184 -48.79852,134.58592 -19.79369,32.38822 -53.95561,70.42951 -83.82184,93.34068 -8.18342,6.27771 -14.87896,12.39409 -14.87896,13.59206 0,3.46833 4.47583,11.30645 6.52493,11.42651 1.02758,0.0602 5.50218,0.13397 9.94351,0.16391 35.30595,0.23766 66.49436,27.95362 72.20719,64.16819 2.24312,14.21963 -0.85906,31.02953 -8.47257,45.91032 -6.33874,12.38923 -5.68594,12.76 10.60357,6.02272 19.48951,-8.06085 50.75281,-16.01994 80.87349,-20.58893 20.61825,-3.1276 78.22958,-2.70758 98.10015,0.7152 30.04452,5.17521 63.78333,15.42227 87.50618,26.57712 9.02562,4.24396 12.08402,3.53478 15.74538,-3.65102 z M 442.18805,584.23236 c -2.40952,-2.44551 -0.57861,-3.61392 5.66294,-3.61392 6.27972,0 11.33486,-2.88318 9.07558,-5.17614 -0.55197,-0.5602 -3.1868,-1.01908 -5.85443,-1.01908 -8.17143,0 -12.66426,-7.81642 -7.5034,-13.05414 3.03428,-3.07954 19.57324,-3.52231 18.59424,-0.49757 -0.34434,1.06478 -3.32043,2.13462 -6.61283,2.37737 -3.29244,0.24293 -6.92196,0.77374 -8.06564,1.17992 -3.72849,1.32424 1.08035,5.1356 7.12741,5.64903 4.49744,0.38167 5.8599,1.2901 7.02936,4.68596 2.21567,6.43353 -2.16019,10.5014 -11.2965,10.5014 -3.92667,0 -7.59719,-0.46478 -8.15673,-1.03254 z m 16.42315,-2.95017 c 4.80828,-4.88005 1.69116,-9.95658 -6.11357,-9.95658 -2.66699,0 -5.70399,-1.04548 -6.74881,-2.32322 -2.89073,-3.53507 0.58531,-6.69462 8.1306,-7.39021 6.36681,-0.58695 6.36681,-0.58695 -0.57678,-0.85757 -6.84751,-0.26694 -10.60599,1.62885 -10.60599,5.3493 0,3.31145 4.63813,6.77047 9.0784,6.77047 2.35525,0 5.1372,1.04548 6.18204,2.32323 2.89079,3.53506 -0.58531,6.69467 -8.1306,7.39027 l -6.36682,0.58701 6.37668,0.27043 c 4.06106,0.1721 7.24755,-0.61323 8.77479,-2.16323 z m 8.09755,3.05572 c -2.45243,-2.48907 1.28702,-3.71947 11.30422,-3.71947 7.89436,0 10.55334,0.51045 10.08915,1.93601 -0.67805,2.0827 -19.54851,3.65583 -21.39337,1.78346 z m 15.31095,-1.72855 c -2.29313,-0.35356 -6.41342,-0.36059 -9.15627,-0.0175 -2.74284,0.34477 -0.86666,0.63384 4.16932,0.64256 5.03592,0.006 7.28009,-0.27336 4.98695,-0.62675 z m 10.48631,1.58092 c -0.53697,-0.54499 -0.97583,-4.73929 -0.97583,-9.32124 0,-6.77978 0.69725,-9.03833 3.74573,-12.13225 5.13087,-5.20729 13.35414,-5.17304 18.52729,0.0773 3.30576,3.35506 3.75997,5.03016 3.36425,12.40818 -0.56755,10.58021 -3.23772,11.20456 -4.29552,1.0044 -0.91223,-8.79663 -3.49012,-12.64486 -8.47072,-12.64486 -4.84588,0 -8.29289,5.57736 -8.29289,13.41802 0,6.25563 -1.52471,9.29916 -3.60231,7.19064 z m 5.85945,-20.00211 c 7.64917,-5.67659 14.79446,-1.05531 16.16412,10.45439 0.98761,8.29906 0.98761,8.29906 1.20251,1.15107 0.28492,-9.48437 -3.98809,-15.30958 -11.23052,-15.30958 -7.24248,0 -11.51562,5.82521 -11.23052,15.30958 0.21514,7.14799 0.21514,7.14799 1.20251,-1.15107 0.65821,-5.53083 1.95636,-9.01801 3.8919,-10.45439 z m 23.17698,20.04419 c -2.40952,-2.44551 -0.57861,-3.61392 5.66299,-3.61392 6.27968,0 11.33481,-2.88318 9.07553,-5.17614 -0.55255,-0.5602 -3.18674,-1.01908 -5.85442,-1.01908 -8.17143,0 -12.6642,-7.81642 -7.50342,-13.05414 3.03429,-3.07954 19.57325,-3.52231 18.59431,-0.49757 -0.34492,1.06478 -3.32049,2.13462 -6.61289,2.37737 -3.29238,0.24293 -6.92196,0.77374 -8.06565,1.17992 -3.72848,1.32424 1.08036,5.1356 7.12742,5.64903 4.4975,0.38167 5.8599,1.2901 7.02943,4.68596 2.2156,6.43353 -2.16026,10.5014 -11.29657,10.5014 -3.92667,0 -7.5972,-0.46478 -8.15673,-1.03254 z m 16.42315,-2.95017 c 4.80834,-4.88005 1.69123,-9.95658 -6.1135,-9.95658 -2.667,0 -5.704,-1.04548 -6.74888,-2.32322 -2.89073,-3.53507 0.58538,-6.69462 8.1306,-7.39021 6.36682,-0.58695 6.36682,-0.58695 -0.57678,-0.85757 -6.8475,-0.26694 -10.60605,1.62885 -10.60605,5.3493 0,3.31145 4.63819,6.77047 9.07848,6.77047 2.35525,0 5.13714,1.04548 6.18202,2.32323 2.89073,3.53506 -0.58537,6.69467 -8.1306,7.39027 l -6.36683,0.58701 6.37669,0.27043 c 4.06106,0.1721 7.24751,-0.61323 8.77474,-2.16323 z m 14.65259,2.03886 c -12.10745,-6.33811 -8.13729,-24.38578 5.36438,-24.38578 11.11147,0 16.78848,12.44958 9.46843,20.76408 -4.25653,4.83482 -9.88849,6.20998 -14.83281,3.6217 z m 10.52702,-1.8709 c 7.08549,-3.71876 8.37515,-11.46141 2.89523,-17.38152 -4.69073,-5.06744 -12.27534,-4.8381 -16.40972,0.49639 -5.0531,6.51977 -3.66596,12.99058 3.70432,17.28055 3.98448,2.31918 4.69258,2.29067 9.81017,-0.39513 z m -13.00848,-4.7129 c -2.11589,-3.27738 -2.21002,-4.60552 -0.60503,-8.53805 3.35946,-8.23127 15.57016,-7.70462 17.6639,0.7618 2.49996,10.10908 -11.44797,16.46734 -17.05887,7.77625 z m 13.77167,-0.10129 c 3.08832,-3.13438 3.04433,-6.66471 -0.12742,-10.22177 -3.60171,-4.03924 -9.14019,-3.56386 -12.11218,1.03962 -2.31563,3.58681 -2.31563,4.1572 0,7.744 2.87417,4.452 8.60649,5.12559 12.23969,1.43815 z m -98.0498,-4.82119 c 0.41354,-2.17875 2.12875,-2.54099 10.40889,-2.19801 10.76029,0.44547 11.49302,0.67722 9.98425,3.15481 -0.55313,0.90849 -5.47941,1.65185 -10.94698,1.65185 -8.49858,0 -9.86933,-0.37874 -9.44616,-2.60865 z m 15.37077,-0.0609 c -2.72779,-0.3436 -7.1915,-0.3436 -9.9193,0 -2.72779,0.34362 -0.49602,0.62472 4.95962,0.62472 5.45564,0 7.68747,-0.28098 4.95968,-0.62472 z m -15.37233,-10.57732 c 0.27109,-1.32277 1.00843,-2.36824 1.63792,-2.32321 0.62949,0.0468 5.26484,0.0819 10.30082,0.0819 7.12152,0 9.15627,0.51629 9.15627,2.32323 0,1.84608 -2.21671,2.32316 -10.79425,2.32316 -8.9525,0 -10.70998,-0.41035 -10.30076,-2.405 z m 15.37233,-0.26399 c -2.72779,-0.34362 -7.1915,-0.34362 -9.9193,0 -2.72779,0.34361 -0.49602,0.62464 4.95962,0.62464 5.45564,0 7.68747,-0.28098 4.95968,-0.62464 z m 20.52717,-12.24897 c -0.58853,-0.59738 -1.07008,-2.66819 -1.07008,-4.60185 0,-2.83438 -0.96119,-3.60975 -4.95967,-4.00102 -4.95962,-0.48527 -4.95962,-0.48527 -4.95962,-13.65011 0,-10.66952 0.43373,-13.16479 2.28904,-13.16479 1.74208,0 2.39764,2.31304 2.74343,9.67995 0.44757,9.5374 0.51908,9.68 4.86956,9.68 2.4284,0 4.83493,0.68923 5.34791,1.53157 0.57043,0.93671 2.41449,0.54615 4.74759,-1.00532 5.67879,-3.7763 4.53989,-10.14427 -2.05711,-11.50238 -6.15816,-1.26779 -8.71044,-3.36882 -11.047,-9.09388 -2.3169,-5.67699 0.35241,-12.04326 6.49775,-15.49603 3.74279,-2.10294 4.40026,-2.11132 5.65746,-0.072 1.02959,1.67006 0.293,3.50392 -2.66608,6.6387 -4.8813,5.17095 -3.57755,8.79662 3.8672,10.75452 5.22257,1.37346 11.03419,7.79159 11.03419,12.18558 0,6.97229 -8.10383,15.60332 -12.22389,13.01901 -0.72207,-0.45307 -1.52903,1.44921 -1.7932,4.22686 -0.45795,4.81592 -3.7868,7.39888 -6.27748,4.87106 z m 4.74471,-6.37781 c -0.43546,-5.33765 -0.90617,-5.8707 -5.81479,-6.58239 -5.34116,-0.7744 -5.34116,-0.7744 -5.79554,-10.45439 -0.24973,-5.32402 -1.13832,-9.68002 -1.97441,-9.68002 -0.91083,0 -1.34035,4.50028 -1.07169,11.22878 0.44815,11.2288 0.44815,11.2288 5.408,11.71413 4.36104,0.42674 4.95966,1.03428 4.95966,5.0336 0,3.08855 0.76423,4.54823 2.38121,4.54823 1.81839,0 2.26926,-1.37257 1.90756,-5.80794 z m 10.27809,-7.28642 c 6.72697,-6.82726 3.4062,-16.42332 -6.51632,-18.83014 -2.32947,-0.56488 -5.09383,-1.71356 -6.14297,-2.55222 -2.9724,-2.37608 -2.24538,-8.47379 1.31193,-11.00253 1.77068,-1.25873 2.95601,-3.09071 2.63406,-4.07098 -0.37607,-1.14516 -2.07263,-0.59503 -4.74552,1.53884 -7.69075,6.13973 -4.78537,16.83189 5.26536,19.37728 8.77336,2.22189 11.25399,10.92269 4.20554,14.75108 -1.62177,0.88093 -2.94868,2.27412 -2.94868,3.09597 0,2.63096 3.08047,1.60626 6.9366,-2.3073 z M 189.37322,684.06944 c 21.37222,-6.9168 42.77292,-15.83619 62.56783,-26.07691 18.10488,-9.36649 52.57002,-31.4462 56.26904,-36.04822 1.83847,-2.28734 1.70793,-2.60573 -1.06813,-2.60573 -1.73937,0 -11.26588,5.3852 -21.16999,11.96712 -32.62659,21.68242 -75.60921,41.69342 -108.80713,50.65617 -9.5334,2.57382 -13.11222,4.23371 -13.50286,6.26267 -0.46373,2.40985 0.21456,2.61935 5.34113,1.64869 3.22998,-0.61154 12.39653,-3.22323 20.37011,-5.80379 z m 357.5883,-309.13877 c 2.19763,-2.4645 2.32573,-5.16949 1.08197,-22.84475 -0.77592,-11.02707 -1.13659,-24.57946 -0.80142,-30.11641 0.3351,-5.53695 1.0139,-16.68828 1.50831,-24.78075 1.5003,-24.55754 6.49586,-53.70729 13.38905,-78.12668 3.80381,-13.47528 7.42797,-17.61921 11.06446,-12.65121 1.33547,1.82444 1.66439,3.86332 0.87451,5.42081 -1.75028,3.45118 -8.78253,31.4758 -10.73115,42.76516 -4.65699,26.97997 -6.30287,46.6787 -6.14685,73.56786 0.0917,15.75901 0.16034,29.87242 0.15285,31.36314 -0.0172,3.80035 0.63657,3.42871 4.16136,-2.35958 2.72715,-4.47836 3.17854,-8.49945 3.86829,-34.46073 1.41697,-53.32655 9.9779,-95.46136 29.19869,-143.70835 0.88695,-2.22637 -0.35011,-1.85975 -6.00386,1.77913 -3.91652,2.52083 -11.62205,5.81987 -17.12336,7.3312 -11.17186,3.06918 -10.4903,2.13214 -16.81744,23.121 -3.469,11.50766 -9.83478,39.33059 -11.87103,51.88472 -3.75012,23.12033 -5.4539,74.23385 -3.1929,95.78487 2.10575,20.07115 2.67814,21.31305 7.38848,16.03057 z m -5.73601,-24.92053 c -0.4643,-0.76256 0.15978,-1.77757 1.38715,-2.25554 2.38467,-0.92875 4.4213,1.00246 2.79637,2.65163 -1.37959,1.40013 -3.19435,1.22832 -4.18352,-0.39606 z m -0.86186,-24.77733 c 0,-1.93613 4.30798,-3.41124 5.28352,-1.80915 0.44182,0.72538 -0.27915,1.74037 -1.60198,2.25556 -3.19896,1.24587 -3.68154,1.18736 -3.68154,-0.44641 z m 1.90756,-24.51013 c -3.01146,-1.09634 -2.22196,-3.53392 1.14455,-3.53392 1.67863,0 3.0521,0.65582 3.0521,1.45739 0,1.98252 -1.88834,2.91689 -4.19665,2.07653 z m 3.81512,-24.73591 c -1.46881,-0.38956 -2.67057,-1.28891 -2.67057,-1.99854 0,-0.70963 1.37347,-0.9257 3.0521,-0.48017 1.67865,0.44552 3.05206,1.42571 3.05206,2.17819 0,0.75249 -0.17188,1.28732 -0.38125,1.18851 -0.20994,-0.0988 -1.5833,-0.49839 -3.05211,-0.88798 z m 2.77185,-25.18917 c -1.62292,-0.59796 -2.27686,-1.50992 -1.45317,-2.02657 1.57425,-0.98745 6.36388,1.30285 5.12284,2.44959 -0.39509,0.36533 -2.04669,0.17497 -3.66967,-0.42305 z m 5.23988,-24.8535 c -1.85099,-1.21407 -1.63199,-1.50591 1.14455,-1.52509 1.88846,-0.0124 3.43358,0.67324 3.43358,1.52509 0,1.94052 -1.61947,1.94052 -4.57813,0 z m 6.80448,-23.33501 c -0.55313,-0.90851 -0.62339,-2.04005 -0.15573,-2.51452 1.2554,-1.2741 5.55979,0.71478 5.55979,2.56896 0,2.1021 -4.11589,2.06064 -5.40389,-0.0545 z m -5.89929,135.08223 c -0.76458,-41.29938 3.84995,-79.8007 13.69824,-114.29165 4.03216,-14.12173 3.9851,-20.0826 -0.12575,-15.91056 -3.42447,3.47552 -11.94913,38.62874 -15.17951,62.5957 -3.21091,23.82284 -3.78554,32.69359 -3.81247,58.85429 -0.0346,33.63704 0.79473,41.98454 3.91081,39.35987 1.60988,-1.356 1.92988,-7.84842 1.50854,-30.60765 z m 24.65607,-154.34707 c 5.24579,-2.34793 9.5378,-4.82675 9.5378,-5.5085 0,-0.68175 -5.20861,-5.84994 -11.57474,-11.48489 -25.70274,-22.7508 -35.51544,-26.43184 -67.22013,-25.21636 -11.02311,0.42258 -20.82445,1.25914 -21.78074,1.85896 -2.83074,1.77561 5.66344,16.09291 15.3368,25.85073 8.59685,8.67189 20.27449,15.49515 31.36712,18.32793 3.1907,0.81484 12.32512,1.24742 20.2987,0.96129 11.769,-0.42228 16.2924,-1.32362 24.03519,-4.78916 z m 22.08596,-15.93632 c 13.12314,-13.96336 19.49879,-29.61766 19.49879,-47.87589 0,-8.80956 -0.36048,-9.96348 -3.48918,-11.17077 -4.49146,-1.73309 -32.92942,-7.38431 -43.81821,-8.707588 -4.61632,-0.561021 -19.38078,-5.39448 -32.80996,-10.74107 -13.42925,-5.34659 -28.19377,-10.967747 -32.81009,-12.49146 -4.61625,-1.523711 -7.64715,-3.023927 -6.73526,-3.333812 1.97326,-0.670561 29.77313,9.350032 47.70224,17.194505 9.43757,4.129198 17.93304,6.37966 32.80998,8.691405 11.04121,1.71571 23.85186,4.14485 28.46818,5.39809 11.05876,3.00226 10.66495,3.15752 8.85918,-3.49262 C 614.27839,81.940667 599.78743,64.030768 583.05097,55.927884 561.92308,45.698927 542.01327,45.804236 521.17793,56.255165 494.6091,69.581916 478.50595,101.67967 483.88181,130.59566 l 1.74578,9.39021 h 27.74959 c 27.04968,0 27.97431,0.10688 36.66328,4.23809 9.55165,4.54139 23.95293,15.56652 33.7437,25.83311 3.31783,3.47904 6.81855,6.32553 7.77946,6.32553 0.96084,0 5.54261,-4.0386 10.18166,-8.97465 z M 267.5378,630.93573 c -0.94391,-0.90093 -0.032,-0.002 -0.032,-0.002 0,0 2.13205,0.9194 0.032,0.002 z"
     id="path1"
     sodipodi:nodetypes="sssscsssssssssssscsscsssssscssssssscssscssssssscsssscssssscsssssssccscssssssssssssscssssssssssssssscscssssssssccssssssssccccsccssssssssssssssssssssssssssscsssssssssscssssssssssssssssssssssssssssssssssssssscssccsccssssssscssccsssssssssssssssssssssssssssscsssssscssssssssssssscsssssssscsssscsscssccsssssssssccsssssscccccsssssssssssscsccscscsscsscssccsssssssssccsssssscsssccssssssssssscsssssssscssssssssssssssssssssssssssssscssscssscsssssssssssssssscssssssssssccssssssssssssssssssssssssssscsssscssscssccsccssssssssssssssssssssssssssscssscsssssssas" />
</svg>
