<svg xmlns="http://www.w3.org/2000/svg" viewBox="0 0 960 960">
  <path fill="#75c92f" d="M314 108c30 0 54 24 54 54v244h142c30 0 54 24 54 54v318c0 30-24 54-54 54s-54-24-54-54V514H314c-30 0-54-24-54-54V162c0-30 24-54 54-54Z"/>
  <path fill="#5f5f5f" d="M680 100c44 0 86 11 124 31v124c-31-34-74-55-124-55-77 0-138 45-138 102 0 52 49 82 152 116 127 43 194 110 194 222 0 151-118 260-277 260-60 0-116-17-164-47V722c44 49 101 76 164 76 86 0 155-53 155-128 0-57-42-88-148-124-127-43-198-105-198-219 0-132 115-227 260-227Z"/>
</svg>
