<?xml version="1.0" encoding="UTF-8" standalone="no"?>
<svg
   viewBox="0 0 960 960"
   version="1.1"
   id="svg2"
   sodipodi:docname="icon.svg"
   inkscape:version="1.3.2 (091e20e, 2023-11-25, custom)"
   xmlns:inkscape="http://www.inkscape.org/namespaces/inkscape"
   xmlns:sodipodi="http://sodipodi.sourceforge.net/DTD/sodipodi-0.dtd"
   xmlns="http://www.w3.org/2000/svg"
   xmlns:svg="http://www.w3.org/2000/svg">
  <defs
     id="defs2" />
  <sodipodi:namedview
     id="namedview2"
     pagecolor="#ffffff"
     bordercolor="#000000"
     borderopacity="0.25"
     inkscape:showpageshadow="2"
     inkscape:pageopacity="0.0"
     inkscape:pagecheckerboard="0"
     inkscape:deskcolor="#d1d1d1"
     inkscape:zoom="0.8639961"
     inkscape:cx="657.41038"
     inkscape:cy="586.2295"
     inkscape:window-width="3440"
     inkscape:window-height="1369"
     inkscape:window-x="-8"
     inkscape:window-y="-8"
     inkscape:window-maximized="1"
     inkscape:current-layer="svg2" />
  <path
     fill="#75c92f"
     d="m 232,96 c 30,0 54,24 54,54 v 244 h 142 c 30,0 54,24 54,54 v 318 c 0,30 -24,54 -54,54 -30,0 -54,-24 -54,-54 V 502 H 232 c -30,0 -54,-24 -54,-54 V 150 c 0,-30 24,-54 54,-54 z"
     id="path1" />
  <path
     fill="#5f5f5f"
     d="m 598,88 c 44,0 86,11 124,31 v 124 c -31,-34 -74,-55 -124,-55 -77,0 -138,45 -138,102 0,52 49,82 152,116 127,43 194,110 194,222 0,151 -118,260 -277,260 -60,0 -116,-17 -164,-47 V 710 c 44,49 101,76 164,76 86,0 155,-53 155,-128 C 684,601 642,570 536,534 409,491 338,429 338,315 338,183 453,88 598,88 Z"
     id="path2" />
</svg>
